<svg width="442" height="149" viewBox="0 0 442 149" fill="none" xmlns="http://www.w3.org/2000/svg">
<path d="M183.51 17.6662L137.39 73.6984C136.202 75.1416 136.238 77.2343 137.476 78.6349L183.51 130.726H145.26L104.084 80.8508C101.865 78.1628 101.895 74.2696 104.155 71.6164L150.12 17.6662H183.51Z" fill="url(#paint0_linear_light)"/>
<path d="M7.05114 41.1235V18.5115H104.405C109.602 18.5115 112.592 24.4224 109.511 28.6088L53.9792 104.075C52.747 105.75 53.9426 108.114 56.0217 108.114H103.205L104.262 130.938H16.0969C9.75866 130.938 6.19971 123.641 10.1016 118.646L70.6606 41.1235H7.05114Z" fill="url(#paint1_linear_light)"/>
<path d="M203.08 93.8018V53.9846H228.588V60.031H210.293V70.8408H226.838V76.8873H210.293V93.8018H203.08ZM242.372 53.9846V93.8018H235.159V53.9846H242.372ZM282.904 53.9846V93.8018H276.488L257.726 66.6802H257.396V93.8018H250.183V53.9846H256.638L275.38 81.1256H275.73V53.9846H282.904ZM295.876 93.8018H288.177L302.195 53.9846H311.099L325.137 93.8018H317.438L306.803 62.1502H306.492L295.876 93.8018ZM296.129 78.1899H317.126V83.9836H296.129V78.1899ZM363.102 53.9846V93.8018H356.686L337.925 66.6802H337.594V93.8018H330.381V53.9846H336.836L355.578 81.1256H355.928V53.9846H363.102ZM405.043 67.419H397.772C397.565 66.2266 397.182 65.1702 396.625 64.25C396.068 63.3167 395.374 62.5261 394.545 61.878C393.715 61.23 392.769 60.7439 391.706 60.4199C390.656 60.0829 389.522 59.9144 388.304 59.9144C386.139 59.9144 384.221 60.4588 382.549 61.5475C380.877 62.6233 379.568 64.2046 378.622 66.2914C377.675 68.3652 377.202 70.8991 377.202 73.8932C377.202 76.9391 377.675 79.5055 378.622 81.5922C379.581 83.6661 380.89 85.2344 382.549 86.2972C384.221 87.3471 386.133 87.872 388.284 87.872C389.477 87.872 390.591 87.7165 391.628 87.4054C392.678 87.0814 393.618 86.6083 394.447 85.9861C395.29 85.364 395.996 84.5993 396.567 83.692C397.15 82.7847 397.552 81.7478 397.772 80.5813L405.043 80.6201C404.771 82.5125 404.181 84.2882 403.274 85.9472C402.38 87.6063 401.207 89.0709 399.755 90.3411C398.303 91.5984 396.605 92.5835 394.661 93.2963C392.717 93.9962 390.559 94.3462 388.187 94.3462C384.687 94.3462 381.564 93.5361 378.816 91.9159C376.068 90.2958 373.904 87.9563 372.322 84.8974C370.741 81.8385 369.95 78.1704 369.95 73.8932C369.95 69.603 370.748 65.9349 372.342 62.889C373.936 59.8301 376.107 57.4906 378.855 55.8705C381.603 54.2503 384.713 53.4402 388.187 53.4402C390.403 53.4402 392.464 53.7513 394.37 54.3734C396.275 54.9956 397.973 55.9093 399.463 57.1147C400.954 58.3072 402.179 59.7718 403.138 61.5086C404.11 63.2325 404.745 65.2026 405.043 67.419ZM411.649 93.8018V53.9846H437.545V60.031H418.862V70.8408H436.204V76.8873H418.862V87.7554H437.701V93.8018H411.649Z" fill="#1a1a1a"/>
<defs>
<linearGradient id="paint0_linear_light" x1="114.487" y1="150.065" x2="160.147" y2="0.214775" gradientUnits="userSpaceOnUse">
<stop stop-color="#3DFFEC"/>
<stop offset="0.5" stop-color="#00D7CC"/>
<stop offset="1" stop-color="#004EF6"/>
</linearGradient>
<linearGradient id="paint1_linear_light" x1="20.414" y1="150.168" x2="54.1142" y2="-5.3753" gradientUnits="userSpaceOnUse">
<stop stop-color="#3DFFEC"/>
<stop offset="0.5" stop-color="#00D7CC"/>
<stop offset="1" stop-color="#004EF6"/>
</linearGradient>
</defs>
</svg>
